  0
SECTION
  2
HEADER
  9
$ACADVER
  1
AC1009
  9
$INSBASE
 10
0.0
 20
0.0
 30
0.0
  9
$EXTMIN
 10
0.0
 20
0.0
 30
0.0
  9
$EXTMAX
 10
0.0
 20
0.0
 30
0.0
  0
ENDSEC
  0
SECTION
  2
TABLES
  0
TABLE
  2
VPORT
 70
0
  0
ENDTAB
  0
TABLE
  2
LTYPE
 70
1
  0
LTYPE
  2
CONTINUOUS
 70
0
  3
Solid line
 72
65
 73
0
 40
0.0
  0
ENDTAB
  0
TABLE
  2
LAYER
 70
1
  0
LAYER
  2
0
 70
64
 62
7
  6
continuous
  0
ENDTAB
  0
TABLE
  2
STYLE
 70
1
  0
STYLE
  2
STANDARD
 70
0
 40
0
 41
1.0
 50
0.0
 71
0
 42
1
 3
ARIAL.TTF
 4

  0
ENDTAB
  0
TABLE
  2
VIEW
 70
0
  0
ENDTAB
  0
ENDSEC
  0
SECTION
  2
BLOCKS
  0
BLOCK
  8
0
  2
SKETCH
 70
0
 10
0.0
 20
0.0
 30
0.0
  3
SKETCH
  0
LINE
  8
0
 62
7
 10
272.15564621157125
 20
245.86440224723134
 30
0.0
 11
-130.8951982596255
 21
13.162936742101266
 31
0.0
  0
LINE
  8
0
 62
7
 10
-130.8951982596255
 20
13.162936742101266
 30
0.0
 11
-130.8951982596255
 21
-150.13640473154967
 31
0.0
  0
LINE
  8
0
 62
7
 10
-130.8951982596255
 20
-150.13640473154965
 30
0.0
 11
272.15564621157125
 21
82.56506077358043
 31
0.0
  0
LINE
  8
0
 62
7
 10
272.15564621157125
 20
82.56506077358041
 30
0.0
 11
272.15564621157125
 21
245.86440224723134
 31
0.0
  0
POLYLINE
  8
0
 62
7
 70
0
 66
1
 10
0.0
 20
0.0
 30
0.0
  0
VERTEX
  8
0
 10
254.939858463475
 20
122.83278757468928
 30
0.0
  0
VERTEX
  8
0
 10
256.70762532519075
 20
125.89464980585171
 30
0.0
  0
VERTEX
  8
0
 10
254.939858463475
 20
126.91527111153057
 30
0.0
  0
SEQEND
  8
0
  0
LINE
  8
0
 62
7
 10
254.939858463475
 20
126.91527111153056
 30
0.0
 11
184.229183994844
 21
86.09045260185862
 31
0.0
  0
POLYLINE
  8
0
 62
7
 70
0
 66
1
 10
0.0
 20
0.0
 30
0.0
  0
VERTEX
  8
0
 10
184.229183994844
 20
86.09045260185863
 30
0.0
  0
VERTEX
  8
0
 10
182.4614171331282
 20
83.0285903706962
 30
0.0
  0
VERTEX
  8
0
 10
184.229183994844
 20
82.00796906501735
 30
0.0
  0
SEQEND
  8
0
  0
LINE
  8
0
 62
7
 10
254.939858463475
 20
122.83278757468929
 30
0.0
 11
184.229183994844
 21
82.00796906501735
 31
0.0
  0
POLYLINE
  8
0
 62
7
 70
0
 66
1
 10
0.0
 20
0.0
 30
0.0
  0
VERTEX
  8
0
 10
254.51876718032696
 20
180.56413441690466
 30
0.0
  0
VERTEX
  8
0
 10
256.2865340420427
 20
183.6259966480671
 30
0.0
  0
VERTEX
  8
0
 10
254.51876718032696
 20
184.64661795374593
 30
0.0
  0
SEQEND
  8
0
  0
LINE
  8
0
 62
7
 10
254.51876718032696
 20
184.64661795374593
 30
0.0
 11
183.80809271169596
 21
143.82179944407397
 31
0.0
  0
POLYLINE
  8
0
 62
7
 70
0
 66
1
 10
0.0
 20
0.0
 30
0.0
  0
VERTEX
  8
0
 10
183.80809271169596
 20
143.82179944407397
 30
0.0
  0
VERTEX
  8
0
 10
182.04032584998018
 20
140.75993721291155
 30
0.0
  0
VERTEX
  8
0
 10
183.80809271169596
 20
139.7393159072327
 30
0.0
  0
SEQEND
  8
0
  0
LINE
  8
0
 62
7
 10
254.51876718032696
 20
180.56413441690466
 30
0.0
 11
183.80809271169596
 21
139.7393159072327
 31
0.0
  0
POLYLINE
  8
0
 62
7
 70
0
 66
1
 10
0.0
 20
0.0
 30
0.0
  0
VERTEX
  8
0
 10
-44.18157440848011
 20
-49.69938856617173
 30
0.0
  0
VERTEX
  8
0
 10
-42.41380754676432
 20
-46.6375263350093
 30
0.0
  0
VERTEX
  8
0
 10
-44.18157440848009
 20
-45.61690502933045
 30
0.0
  0
SEQEND
  8
0
  0
LINE
  8
0
 62
7
 10
-44.18157440848009
 20
-45.616905029330454
 30
0.0
 11
-114.89224887711111
 21
-86.44172353900241
 31
0.0
  0
POLYLINE
  8
0
 62
7
 70
0
 66
1
 10
0.0
 20
0.0
 30
0.0
  0
VERTEX
  8
0
 10
-114.89224887711111
 20
-86.4417235390024
 30
0.0
  0
VERTEX
  8
0
 10
-116.66001573882687
 20
-89.50358577016483
 30
0.0
  0
VERTEX
  8
0
 10
-114.89224887711111
 20
-90.52420707584368
 30
0.0
  0
SEQEND
  8
0
  0
LINE
  8
0
 62
7
 10
-44.18157440848011
 20
-49.699388566171734
 30
0.0
 11
-114.89224887711111
 21
-90.52420707584366
 31
0.0
  0
POLYLINE
  8
0
 62
7
 70
0
 66
1
 10
0.0
 20
0.0
 30
0.0
  0
VERTEX
  8
0
 10
-44.60266569162813
 20
8.031958276043618
 30
0.0
  0
VERTEX
  8
0
 10
-42.834898829912355
 20
11.093820507206047
 30
0.0
  0
VERTEX
  8
0
 10
-44.60266569162812
 20
12.114441812884895
 30
0.0
  0
SEQEND
  8
0
  0
LINE
  8
0
 62
7
 10
-44.602665691628125
 20
12.114441812884898
 30
0.0
 11
-115.31334016025914
 21
-28.710376696787044
 31
0.0
  0
POLYLINE
  8
0
 62
7
 70
0
 66
1
 10
0.0
 20
0.0
 30
0.0
  0
VERTEX
  8
0
 10
-115.31334016025913
 20
-28.71037669678706
 30
0.0
  0
VERTEX
  8
0
 10
-117.0811070219749
 20
-31.772238927949488
 30
0.0
  0
VERTEX
  8
0
 10
-115.31334016025914
 20
-32.79286023362833
 30
0.0
  0
SEQEND
  8
0
  0
LINE
  8
0
 62
7
 10
-44.60266569162814
 20
8.031958276043618
 30
0.0
 11
-115.31334016025914
 21
-32.79286023362832
 31
0.0
  0
POLYLINE
  8
0
 62
7
 70
0
 66
1
 10
0.0
 20
0.0
 30
0.0
  0
VERTEX
  8
0
 10
262.1337581023066
 20
187.03532774905568
 30
0.0
  0
VERTEX
  8
0
 10
263.9015249640224
 20
184.5204137583612
 30
0.0
  0
VERTEX
  8
0
 10
267.43705868745394
 20
186.5616546838448
 30
0.0
  0
VERTEX
  8
0
 10
269.20482554916975
 20
191.1178096000229
 30
0.0
  0
VERTEX
  8
0
 10
267.43705868745394
 20
193.63272359071738
 30
0.0
  0
VERTEX
  8
0
 10
263.9015249640224
 20
191.59148266523377
 30
0.0
  0
VERTEX
  8
0
 10
262.1337581023066
 20
187.03532774905568
 30
0.0
  0
SEQEND
  8
0
  0
POLYLINE
  8
0
 62
7
 70
0
 66
1
 10
0.0
 20
0.0
 30
0.0
  0
VERTEX
  8
0
 10
262.0918514210827
 20
128.59079350816728
 30
0.0
  0
VERTEX
  8
0
 10
263.8596182827985
 20
126.0758795174728
 30
0.0
  0
VERTEX
  8
0
 10
267.39515200623003
 20
128.1171204429564
 30
0.0
  0
VERTEX
  8
0
 10
269.16291886794585
 20
132.6732753591345
 30
0.0
  0
VERTEX
  8
0
 10
267.39515200623003
 20
135.18818934982897
 30
0.0
  0
VERTEX
  8
0
 10
263.8596182827985
 20
133.14694842434537
 30
0.0
  0
VERTEX
  8
0
 10
262.0918514210827
 20
128.59079350816728
 30
0.0
  0
SEQEND
  8
0
  0
POLYLINE
  8
0
 62
7
 70
0
 66
1
 10
0.0
 20
0.0
 30
0.0
  0
VERTEX
  8
0
 10
-128.31182111468334
 20
-96.37649527564409
 30
0.0
  0
VERTEX
  8
0
 10
-126.54405425296757
 20
-98.89140926633858
 30
0.0
  0
VERTEX
  8
0
 10
-123.00852052953603
 20
-96.85016834085499
 30
0.0
  0
VERTEX
  8
0
 10
-121.24075366782024
 20
-92.2940134246769
 30
0.0
  0
VERTEX
  8
0
 10
-123.00852052953601
 20
-89.77909943398241
 30
0.0
  0
VERTEX
  8
0
 10
-126.54405425296757
 20
-91.820340359466
 30
0.0
  0
VERTEX
  8
0
 10
-128.31182111468334
 20
-96.37649527564409
 30
0.0
  0
SEQEND
  8
0
  0
POLYLINE
  8
0
 62
7
 70
0
 66
1
 10
0.0
 20
0.0
 30
0.0
  0
VERTEX
  8
0
 10
-128.2699144334595
 20
-37.9319610347557
 30
0.0
  0
VERTEX
  8
0
 10
-126.5021475717437
 20
-40.44687502545019
 30
0.0
  0
VERTEX
  8
0
 10
-122.96661384831216
 20
-38.40563409996659
 30
0.0
  0
VERTEX
  8
0
 10
-121.19884698659638
 20
-33.8494791837885
 30
0.0
  0
VERTEX
  8
0
 10
-122.96661384831215
 20
-31.334565193094015
 30
0.0
  0
VERTEX
  8
0
 10
-126.5021475717437
 20
-33.375806118577614
 30
0.0
  0
VERTEX
  8
0
 10
-128.2699144334595
 20
-37.9319610347557
 30
0.0
  0
SEQEND
  8
0
  0
ENDBLK
  0
ENDSEC
  0
SECTION
  2
ENTITIES
  0
INSERT
  2
SKETCH
  8
0
 62
7
 10
0.0
 20
0.0
 30
0.0
  0
ENDSEC
  0
EOF
